<svg xmlns="http://www.w3.org/2000/svg" width="29.071" height="18"><path d="M26.283 14.276A20.35 20.35 0 0114.507 18 20.9 20.9 0 01.128 12.323c-.3-.28-.029-.661.329-.44a28.24 28.24 0 0014.388 3.954 27.87 27.87 0 0010.974-2.323c.532-.25.981.361.464.762zm1.325-1.563c-.407-.539-2.689-.26-3.724-.129-.309.04-.357-.241-.076-.452 1.817-1.321 4.805-.941 5.153-.5s-.1 3.544-1.8 5.026c-.26.231-.512.11-.4-.189.393-.992 1.253-3.224.847-3.756z" fill="#ff992b"/><path d="M8.192 6.537a3.11 3.11 0 00.107.89 5.47 5.47 0 00.31.722.44.44 0 01.068.23.4.4 0 01-.184.3l-.609.42a.451.451 0 01-.252.09.435.435 0 01-.29-.14 3.09 3.09 0 01-.348-.47q-.162-.289-.3-.591a3.526 3.526 0 01-2.843 1.381 2.6 2.6 0 01-1.933-.72 2.624 2.624 0 01-.715-1.923 2.614 2.614 0 01.88-2.062 3.44 3.44 0 012.368-.781c.343.003.686.029 1.025.08.359.05.727.13 1.112.221v-.73a2.264 2.264 0 00-.454-1.6 2.166 2.166 0 00-1.575-.46 4.237 4.237 0 00-1.045.129 7.5 7.5 0 00-1.045.341 2.71 2.71 0 01-.339.13.582.582 0 01-.154.029c-.136 0-.2-.1-.2-.31v-.49a.655.655 0 01.068-.351.718.718 0 01.268-.208A5.42 5.42 0 013.327.209c.492-.13 1-.194 1.509-.189a3.45 3.45 0 012.533.811 3.38 3.38 0 01.8 2.462v3.243zM4.268 8.064a3.047 3.047 0 001-.181 2.16 2.16 0 00.918-.64 1.61 1.61 0 00.329-.642c.067-.285.101-.577.1-.87v-.42a7.82 7.82 0 00-.89-.171 6.889 6.889 0 00-.908-.06 2.172 2.172 0 00-1.441.4c-.326.29-.5.714-.472 1.15-.031.388.098.771.357 1.061a1.31 1.31 0 001.007.373zm7.764 1.081a.53.53 0 01-.368-.1.82.82 0 01-.2-.39L9.189.911a1.832 1.832 0 01-.087-.4c0-.161.078-.251.231-.251h.948a.526.526 0 01.376.1.81.81 0 01.194.391l1.626 6.627L13.985.751a.72.72 0 01.183-.391.64.64 0 01.388-.1h.771a.575.575 0 01.388.1.679.679 0 01.183.391l1.529 6.706L19.1.75a.87.87 0 01.194-.391.613.613 0 01.377-.1h.9a.22.22 0 01.242.251 1.43 1.43 0 01-.089.412L18.395 8.66a.77.77 0 01-.2.39.6.6 0 01-.367.1h-.832a.575.575 0 01-.388-.1.72.72 0 01-.182-.4l-1.499-6.459-1.49 6.447a.797.797 0 01-.182.4.59.59 0 01-.388.1zm12.423.27c-.502 0-1.002-.06-1.489-.179a4.324 4.324 0 01-1.112-.4.7.7 0 01-.3-.28.714.714 0 01-.058-.281v-.51c0-.209.078-.31.222-.31a.53.53 0 01.174.03c.058.02.145.06.242.1a5.1 5.1 0 001.064.35 5.6 5.6 0 001.151.12 2.53 2.53 0 001.411-.331 1.09 1.09 0 00.5-.951.995.995 0 00-.26-.7 2.431 2.431 0 00-.978-.52l-1.4-.452a2.937 2.937 0 01-1.547-1.02 2.44 2.44 0 01-.485-1.452 2.3 2.3 0 01.262-1.111 2.54 2.54 0 01.7-.82 3 3 0 011.005-.52 4.08 4.08 0 011.219-.171 4.7 4.7 0 01.648.04l.627.11c.203.04.378.1.551.159a2.08 2.08 0 01.407.181c.115.06.215.146.291.251a.55.55 0 01.086.33v.47c0 .211-.078.321-.223.321a.98.98 0 01-.367-.12 4.29 4.29 0 00-1.856-.39 2.42 2.42 0 00-1.286.28.973.973 0 00-.454.89.96.96 0 00.291.711 2.84 2.84 0 001.062.552l1.374.449a2.938 2.938 0 011.5.962 2.32 2.32 0 01.445 1.4c.02.794-.335 1.55-.957 2.043a3.08 3.08 0 01-1.073.561 4.474 4.474 0 01-1.383.209z" fill="#242f3d"/></svg>