<svg xmlns="http://www.w3.org/2000/svg" width="21.971" height="18"><path d="M13.941 4.956h.67l1.91-1.944.094-.825A8.47 8.47 0 008.469.368 8.67 8.67 0 002.65 6.451a1.02 1.02 0 01.67-.041l3.82-.641s.194-.327.295-.307a4.7 4.7 0 016.52-.5z" fill="#ea4335"/><path d="M19.241 6.45a8.784 8.784 0 00-2.593-4.257l-2.68 2.729a4.887 4.887 0 011.749 3.848v.484a2.43 2.43 0 012.38 2.429 2.43 2.43 0 01-2.38 2.428h-4.771l-.476.491v2.913l.476.484h4.771a6.22 6.22 0 005.974-4.443 6.378 6.378 0 00-2.45-7.106z" fill="#4285f4"/><path d="M6.168 17.973h4.771v-3.889H6.168a2.33 2.33 0 01-.985-.218l-.671.211-1.922 1.945-.168.682a6.1 6.1 0 003.746 1.269z" fill="#34a853"/><path d="M6.168 5.358a6.216 6.216 0 00-5.843 4.3 6.385 6.385 0 002.1 7.024l2.767-2.817a2.44 2.44 0 01-1.38-2.556 2.408 2.408 0 012.025-2.062 2.377 2.377 0 012.51 1.4l2.767-2.817a6.16 6.16 0 00-4.946-2.472z" fill="#fbbc05"/></svg>