<svg xmlns="http://www.w3.org/2000/svg" width="28" height="28"><circle cx="14" cy="14" r="14" fill="#ffc52f"/><path d="M18.061 13.77a6.29 6.29 0 00-1.574-3.564 2.64 2.64 0 00.35-1.268 2.55 2.55 0 00-3.812-2.223 2.55 2.55 0 00-1.283 2.201 2.53 2.53 0 00.459 1.465 3.035 3.035 0 00-.612 1.99 1.43 1.43 0 00.022.306c-1.421.066-2.558 1.968-2.558 4.329 0 2.383 1.181 4.329 2.624 4.329.344-.001.68-.108.962-.306a1.82 1.82 0 001.378.59 1.87 1.87 0 001.028-.284 2.654 2.654 0 002.12-1.555c.142.037.29.052.437.044 1.312 0 2.383-1.378 2.383-3.061a2.97 2.97 0 00-1.924-3z" fill="#fff"/><path d="M17.296 17.105c-.022.47.248.904.678 1.093a1.637 1.637 0 001.378-.612h.153a.85.85 0 01.634.2c.241.219.284.7.394 1.159a.8.8 0 00.219.372c.372.437.5.722.481.918 0 .2-.153.328-.394.481a6.19 6.19 0 00-1.88 1.246 2.35 2.35 0 01-1.574.94 1.15 1.15 0 01-1.2-.722 2.16 2.16 0 01.044-1.334 9.21 9.21 0 00.35-1.509 6.174 6.174 0 01.153-1.421 1.2 1.2 0 01.481-.787l.044-.022h.044zm-3.7-8.156c.326.025.642.13.918.306a5.04 5.04 0 00.787.328.57.57 0 01.35.284c.055.11.055.24 0 .35a1.264 1.264 0 01-.787.634 3.98 3.98 0 00-.59.328 1.3 1.3 0 01-.765.2.98.98 0 01-.59-.219l-.459-.372a1.108 1.108 0 01-.525-.547.364.364 0 01.153-.437l.372-.262a.58.58 0 00.131-.109 1.58 1.58 0 01.634-.437c.124-.027.25-.042.376-.047z" fill="#ffa300"/><path d="M14.41 5.013a1.88 1.88 0 00-.35.022c-3.17.262-2.318 3.608-2.383 4.723a4.08 4.08 0 01-.787 2.274c-.874 1-1.563 2.147-2.033 3.389a4.21 4.21 0 00-.219 1.88c-.022.022-.066.044-.087.087-.2.219-.328.459-.5.634a1.62 1.62 0 01-.59.262 1.083 1.083 0 00-.656.5 1.27 1.27 0 00-.066.853c.061.236.069.483.022.722a1.47 1.47 0 00-.087 1.115.92.92 0 00.7.437 7.36 7.36 0 012.077.437l.066-.109-.066.109a2.914 2.914 0 001.968.372c.401-.087.739-.353.918-.722.437 0 .918-.2 1.684-.241.525-.044 1.181.2 1.924.153.019.084.048.164.087.241.25.55.819.883 1.421.831a2.54 2.54 0 001.684-.984l-.095-.085.087.066a6.67 6.67 0 011.793-1.137.783.783 0 00.481-.634 1.48 1.48 0 00-.547-1.028 1.731 1.731 0 01-.262-.7 1.47 1.47 0 00-.372-.787 1.24 1.24 0 00-.284-.175 4.03 4.03 0 00-.131-2.777 8.85 8.85 0 00-1.64-2.624 4 4 0 01-1.181-2.515c.087-1.6.262-4.592-2.58-4.592zm.415 2.536a.67.67 0 01.437.153c.15.101.264.246.328.415.085.17.129.357.131.547v.022a1.64 1.64 0 01-.109.568 1.028 1.028 0 01-.153.262l-.066-.022-.394-.153a.55.55 0 00.087-.153.877.877 0 00.066-.328v-.022c-.004-.103-.019-.206-.044-.306s-.075-.181-.153-.241a.265.265 0 00-.394 0 .5.5 0 00-.153.219.77.77 0 00-.066.306v.022a.433.433 0 00.022.175 2.33 2.33 0 00-.415-.153c0-.066-.022-.109-.022-.175v-.022a1.64 1.64 0 01.109-.568 1.05 1.05 0 01.328-.437c.144-.067.3-.104.459-.109zm-2.23.153a.52.52 0 01.306.109.776.776 0 01.241.35 1.19 1.19 0 01.109.481v.219l-.066.022-.306.131v-.2a.44.44 0 00-.066-.241.34.34 0 00-.131-.175.186.186 0 00-.131-.066h-.022a.22.22 0 00-.153.087.773.773 0 00-.087.2.528.528 0 000 .262.44.44 0 00.066.241.34.34 0 00.131.175l.022.022-.109.087-.087.066a.911.911 0 01-.2-.306 1.19 1.19 0 01-.109-.481.892.892 0 01.066-.481.93.93 0 01.219-.372.583.583 0 01.306-.153v.022zm1.006 1.246c.326.025.642.13.918.306a5.04 5.04 0 00.787.328.57.57 0 01.35.284c.055.11.055.24 0 .35a1.264 1.264 0 01-.787.634 3.98 3.98 0 00-.59.328 1.3 1.3 0 01-.765.2.98.98 0 01-.59-.219l-.459-.372a1.108 1.108 0 01-.525-.547.364.364 0 01.153-.437l.372-.262a.58.58 0 00.131-.109 1.58 1.58 0 01.634-.437 2.2 2.2 0 01.371-.046zm1.727 1.028a.958.958 0 00-.35.131c-.131.066-.284.175-.437.262a2.34 2.34 0 01-1.05.372 1.3 1.3 0 01-.875-.35 3.143 3.143 0 01-.262-.241l-.087-.087a.17.17 0 00-.109-.044v.153c.02.01.022.016.022.022l.087.087c.086.09.181.171.284.241a1.55 1.55 0 00.962.372c.397-.03.78-.158 1.115-.372l.437-.262a.65.65 0 01.284-.109l-.022-.175zm.394.481a18.32 18.32 0 001.312 3.345c.399.708.68 1.476.831 2.274a2.41 2.41 0 01.394.044 3.091 3.091 0 00-.809-2.974c-.175-.153-.175-.241-.087-.219a4.324 4.324 0 011.246 2.077 2.67 2.67 0 01.022 1.246c.044.022.109.044.153.066.765.372 1.071.722.918 1.159h-.153c.109-.35-.153-.612-.809-.918-.678-.306-1.224-.262-1.334.35a.134.134 0 01-.022.087c-.044.022-.109.044-.153.066a1.256 1.256 0 00-.59.9c-.094.461-.145.93-.153 1.4a5.19 5.19 0 01-.241 1.006 3.44 3.44 0 01-4.023.241 5.34 5.34 0 00-.306-.437 2.05 2.05 0 01-.2-.262.99.99 0 00.35-.066.432.432 0 00.241-.241.96.96 0 00-.262-.875 4.73 4.73 0 00-1.334-1.137 2.02 2.02 0 01-.853-1.05 2.58 2.58 0 01-.018-1.226 7.06 7.06 0 01.962-2.077c.087-.066.022.109-.306.722a2.742 2.742 0 00-.087 2.886 6.22 6.22 0 01.481-2.165 12.431 12.431 0 001.378-3.958c.044.022.153.109.219.153a3.57 3.57 0 01.437.372c.186.153.415.245.656.262a1.44 1.44 0 00.831-.219 3.49 3.49 0 01.547-.306 1.43 1.43 0 00.765-.525zm1.552 6.8a1.06 1.06 0 00.656 1.028 1.71 1.71 0 001.356-.568h.156a.937.937 0 01.634.175 1.22 1.22 0 01.284.656 1.57 1.57 0 00.306.787c.372.415.481.678.481.853s-.153.306-.372.459a5.518 5.518 0 00-1.837 1.181c-.374.487-.923.81-1.531.9a1.13 1.13 0 01-1.181-.678 1.96 1.96 0 01.044-1.268c.158-.463.275-.938.35-1.421a5.625 5.625 0 01.153-1.356 1.1 1.1 0 01.481-.743zm-8.046-.022h.109c.321.079.597.283.765.568a7.86 7.86 0 01.7 1.268c.259.443.56.861.9 1.246a1.95 1.95 0 01.547 1.2.99.99 0 01-.853.984 2.774 2.774 0 01-1.815-.35 6.759 6.759 0 00-2.165-.459.772.772 0 01-.547-.306c-.087-.153-.087-.437.087-.94a1.88 1.88 0 00-.022-.853 1.313 1.313 0 01.022-.722.8.8 0 01.525-.394 2.1 2.1 0 00.7-.35c.2-.2.328-.459.5-.634a.69.69 0 01.547-.257z" fill="#333"/><path d="M9.228 17.235h.109c.321.079.597.284.765.569a7.86 7.86 0 01.7 1.268 7.95 7.95 0 00.9 1.246 1.95 1.95 0 01.547 1.2.99.99 0 01-.853.984 2.774 2.774 0 01-1.815-.35 6.759 6.759 0 00-2.165-.459.772.772 0 01-.547-.306c-.087-.153-.087-.437.087-.94a1.88 1.88 0 00-.022-.853 1.313 1.313 0 01.022-.722.8.8 0 01.525-.394 2.1 2.1 0 00.7-.35c.2-.2.328-.459.5-.634a.692.692 0 01.547-.259z" fill="#ffa300"/></svg>