<svg xmlns="http://www.w3.org/2000/svg" width="26.175" height="26.404"><path d="M13.087.001c-7.29 0-13.2 5.91-13.2 13.2s5.91 13.2 13.2 13.2 13.2-5.91 13.2-13.2-5.91-13.2-13.2-13.2zM1.319 13.203a11.866 11.866 0 011.018-4.829l5.615 15.513a11.89 11.89 0 01-6.633-10.684zm11.768 11.871a11.626 11.626 0 01-3.325-.484l3.531-10.352 3.615 10a1.61 1.61 0 00.084.165 11.69 11.69 0 01-3.905.671zm1.62-17.436a23.643 23.643 0 001.346-.112.49.49 0 00-.074-.98s-1.905.149-3.135.149c-1.156 0-3.1-.149-3.1-.149a.49.49 0 00-.074.98 21.31 21.31 0 001.235.112l1.832 5.069-2.575 7.788L5.878 7.638a23.643 23.643 0 001.346-.112.49.49 0 00-.074-.98s-1.905.149-3.135.149a19.64 19.64 0 01-.76-.016 11.7 11.7 0 0117.782-2.233 1.48 1.48 0 00-.156-.008 2.05 2.05 0 00-1.974 2.1 5.592 5.592 0 001.156 2.784 6.27 6.27 0 01.971 3.274 14.36 14.36 0 01-.897 3.842l-1.172 3.955-4.258-12.755zm4.3 15.821l3.594-10.482c.572-1.346.878-2.79.9-4.253a8.81 8.81 0 00-.079-1.219 11.94 11.94 0 01-4.412 15.954z" fill="#3e3e3e"/></svg>